FFmpeg version SVN-r25716, Copyright (c) 2000-2010 the FFmpeg developers  built on Nov 10 2010 12:23:18 with gcc 4.1.2 20080704 (Red Hat 4.1.2-48)  configuration: --enable-libmp3lame --enable-shared --disable-mmx --arch=x86_64  libavutil     50.33. 0 / 50.33. 0  libavcore      0.12. 1 /  0.12. 1  libavcodec    52.94. 4 / 52.94. 4  libavformat   52.84. 0 / 52.84. 0  libavdevice   52. 2. 2 / 52. 2. 2  libavfilter    1.59. 0 /  1.59. 0  libswscale     0.12. 0 /  0.12. 0Input #0, avi, from '/RAID10/data/converted_video_files/25304.avi':  Duration: 00:00:05.00, start: 0.000000, bitrate: 4141 kb/s    Stream #0.0: Video: msvideo1, rgb555le, 248x248, 10.80 tbr, 10.80 tbn, 10.80 tbc    Metadata:      title           : STK[buffer @ 0x1e069ee0] w:248 h:248 pixfmt:rgb555le[ffsink @ 0x1e06a150] auto-inserting filter 'auto-inserted scaler 0' between the filter 'src' and the filter 'out'[scale @ 0x1e06a470] w:248 h:248 fmt:rgb555le -> w:248 h:248 fmt:yuv420p flags:0x4Output #0, flv, to '/RAID10/data/converted_video_files/25304.flv':  Metadata:    encoder         : Lavf52.84.0    Stream #0.0: Video: flv, yuv420p, 248x248, q=2-31, 600 kb/s, 1k tbn, 24 tbc    Metadata:      title           : STKStream mapping:  Stream #0.0 -> #0.0Press [q] to stop encodingframe=   54 fps=  0 q=2.0 Lsize=     198kB time=4.96 bitrate= 326.5kbits/s    video:197kB audio:0kB global headers:0kB muxing overhead 0.533415%